<svg width="128" height="128" viewBox="0 0 128 128" fill="none" xmlns="http://www.w3.org/2000/svg">
  <defs>
    <linearGradient id="bilishelf-bg" x1="16" y1="10" x2="112" y2="118" gradientUnits="userSpaceOnUse">
      <stop stop-color="#79A3FF" />
      <stop offset="1" stop-color="#3E5DFE" />
    </linearGradient>
  </defs>
  <rect x="10" y="10" width="108" height="108" rx="30" fill="url(#bilishelf-bg)" />
  <path
    d="M32 46C32 41.0294 36.0294 37 41 37H87C91.9706 37 96 41.0294 96 46V82C96 86.9706 91.9706 91 87 91H41C36.0294 91 32 86.9706 32 82V46Z"
    fill="white"
    fill-opacity="0.14"
  />
  <path
    d="M64 34L86 46.5V81.5L64 94L42 81.5V46.5L64 34Z"
    fill="white"
  />
  <path d="M64 45.2L77 52.7V75.3L64 82.8L51 75.3V52.7L64 45.2Z" fill="#4C66FF" />
  <path d="M64 34V94" stroke="#4C66FF" stroke-width="2.7" stroke-linecap="round" />
  <path d="M42 46.5L86 81.5" stroke="#4C66FF" stroke-width="2.7" stroke-linecap="round" />
</svg>
